<svg xmlns="http://www.w3.org/2000/svg" width="16" height="15.989" viewBox="0 0 16 15.989">
  <g id="icon" transform="translate(0 0.001)">
    <path id="Path_1" data-name="Path 1" d="M11.52,99.286a.57.57,0,0,0-.113-.027l-6.2-.22a.593.593,0,0,0-.113.013C2,100.052,0,102.486,0,105.266c0,3.673,3.587,6.667,8,6.667s8-2.993,8-6.667A6.625,6.625,0,0,0,11.52,99.286Zm0,0" transform="translate(0 -95.945)" fill="#f44336"/>
    <path id="Path_2" data-name="Path 2" d="M135.948,64.526a.327.327,0,0,0-.22-.167,3.834,3.834,0,0,0-3.373.633l-1.167-.247a5.457,5.457,0,0,0-2.107-1.047.345.345,0,0,0-.3.06.352.352,0,0,0-.127.287,5.1,5.1,0,0,0,.54,1.867c-.327.173-.8.387-1,.467a.329.329,0,0,0-.2.373c.053.267.353.527,2.12.593a3.7,3.7,0,0,0,1.4,1.64.358.358,0,0,0,.14.033.378.378,0,0,0,.187-.053,2.515,2.515,0,0,0,1.06-1.533,3.158,3.158,0,0,0,2.247-.12.326.326,0,0,0,.173-.313.334.334,0,0,0-.213-.293,2.789,2.789,0,0,1-.767-.507,2.487,2.487,0,0,0,1.627-1.393A.342.342,0,0,0,135.948,64.526Zm0,0" transform="translate(-123.988 -61.698)" fill="#4caf50"/>
    <path id="Path_3" data-name="Path 3" d="M216.359.294a1.067,1.067,0,0,0-1.473,0l-.333.333a5,5,0,0,0-1.22,3.347v.347a.33.33,0,0,0,.333.333H215a.33.33,0,0,0,.333-.333V3.974a2.8,2.8,0,0,1,1.027-2.207A1.042,1.042,0,0,0,216.359.294Zm0,0" transform="translate(-206.665 0)" fill="#388e3c"/>
    <path id="Path_4" data-name="Path 4" d="M8,112.012c-4.413,0-8-2.993-8-6.667,0-2.78,2-5.214,5.1-6.207a.324.324,0,0,1,.413.213.339.339,0,0,1-.213.42c-2.813.9-4.634,3.087-4.634,5.574,0,3.307,3.287,6,7.334,6s7.334-2.693,7.334-6a5.973,5.973,0,0,0-4.067-5.36.332.332,0,1,1,.253-.613A6.61,6.61,0,0,1,16,105.345C16,109.019,12.414,112.012,8,112.012Zm0,0" transform="translate(0 -96.024)"/>
    <path id="Path_5" data-name="Path 5" d="M45,291.938a.328.328,0,0,1-.2-.067,4.939,4.939,0,0,1-2.133-3.913.333.333,0,1,1,.667,0,4.192,4.192,0,0,0,1.867,3.373.331.331,0,0,1,.067.467A.326.326,0,0,1,45,291.938Zm0,0" transform="translate(-41.335 -278.637)"/>
    <path id="Path_6" data-name="Path 6" d="M131.654,69.019a.358.358,0,0,1-.14-.033,3.742,3.742,0,0,1-1.4-1.64c-1.767-.067-2.067-.327-2.12-.593a.333.333,0,0,1,.2-.373c.2-.087.673-.293,1-.467a5.325,5.325,0,0,1-.54-1.867.334.334,0,0,1,.127-.287.359.359,0,0,1,.307-.06c.44.133,1.9.6,2.2,1.193a.332.332,0,1,1-.593.3,3.452,3.452,0,0,0-1.293-.687,3.646,3.646,0,0,0,.527,1.32.336.336,0,0,1-.073.46,4.237,4.237,0,0,1-.58.333c.253.027.6.053,1.053.067a.344.344,0,0,1,.293.187,4.2,4.2,0,0,0,1.02,1.413,2.118,2.118,0,0,0,.687-1.327.33.33,0,0,1,.153-.22.338.338,0,0,1,.267-.033,4.194,4.194,0,0,0,1.4.207,6.762,6.762,0,0,1-.567-.5c-.06-.06-.107-.107-.147-.14a.325.325,0,0,1-.1-.347.313.313,0,0,1,.267-.233,2.52,2.52,0,0,0,1.527-.753,2.843,2.843,0,0,0-2.433.647.343.343,0,0,1-.473.02.328.328,0,0,1-.02-.467,3.662,3.662,0,0,1,3.52-.767.327.327,0,0,1,.22.167.342.342,0,0,1,.02.28,2.487,2.487,0,0,1-1.627,1.393,2.835,2.835,0,0,0,.767.507.3.3,0,0,1,.22.28.331.331,0,0,1-.173.313,3.194,3.194,0,0,1-2.247.12,2.554,2.554,0,0,1-1.06,1.533A.378.378,0,0,1,131.654,69.019Zm0,0" transform="translate(-123.988 -61.698)"/>
    <path id="Path_7" data-name="Path 7" d="M215,4.654a.33.33,0,0,1-.333-.333V3.974a3.445,3.445,0,0,1,1.227-2.68.372.372,0,0,0-.527-.527l-.333.333A4.319,4.319,0,0,0,214,3.974v.347a.333.333,0,1,1-.667,0V3.974A4.985,4.985,0,0,1,214.559.627l.333-.333a1.067,1.067,0,0,1,1.473,0,1.042,1.042,0,0,1,0,1.473,2.8,2.8,0,0,0-1.027,2.207v.347A.34.34,0,0,1,215,4.654Zm0,0" transform="translate(-206.665 0)"/>
  </g>
</svg>
