<svg xmlns="http://www.w3.org/2000/svg" width="32" height="31.977" viewBox="0 0 32 31.977">
  <g id="icon" transform="translate(0 0.001)">
    <path id="Path_1" data-name="Path 1" d="M23.04,99.592a1.038,1.038,0,0,0-.227-.06l-12.4-.493a1.064,1.064,0,0,0-.227.03A14.87,14.87,0,0,0,0,112.987c0,8.229,7.173,14.934,16,14.934s16-6.705,16-14.934A14.769,14.769,0,0,0,23.04,99.592Zm0,0" transform="translate(0 -95.945)" fill="#f44336"/>
    <path id="Path_2" data-name="Path 2" d="M151.866,64.526a1.552,1.552,0,0,0-.66-.167,30.53,30.53,0,0,0-10.119.633l-3.5-.247a36.52,36.52,0,0,0-6.319-1.047,2.8,2.8,0,0,0-.9.06c-.24.067-.4.173-.38.287a3.256,3.256,0,0,0,1.62,1.867c-.98.173-2.4.387-3,.467-.44.06-.7.213-.6.373.16.267,1.06.527,6.359.593a11.444,11.444,0,0,0,4.2,1.64,2.973,2.973,0,0,0,.42.033,3.018,3.018,0,0,0,.56-.053,5.5,5.5,0,0,0,3.179-1.533,27.508,27.508,0,0,0,6.739-.12c.34-.06.56-.187.52-.313-.02-.133-.28-.247-.64-.293a15.531,15.531,0,0,1-2.3-.507c1.759-.193,3.939-.587,4.879-1.393C152.026,64.713,152.006,64.613,151.866,64.526Zm0,0" transform="translate(-123.988 -61.698)" fill="#4caf50"/>
    <path id="Path_3" data-name="Path 3" d="M216.359.294a1.067,1.067,0,0,0-1.473,0l-.333.333a5,5,0,0,0-1.22,3.347v.347a.33.33,0,0,0,.333.333H215a.33.33,0,0,0,.333-.333V3.974a2.8,2.8,0,0,1,1.027-2.207A1.042,1.042,0,0,0,216.359.294Zm0,0" transform="translate(-198.245 0)" fill="#388e3c"/>
    <path id="Path_4" data-name="Path 4" d="M16,128c-8.827,0-16-6.706-16-14.935a14.833,14.833,0,0,1,10.2-13.9.638.638,0,0,1,.827.478.783.783,0,0,1-.427.941c-5.627,2.016-9.267,6.915-9.267,12.486,0,7.408,6.574,13.442,14.667,13.442s14.667-6.034,14.667-13.442a13.3,13.3,0,0,0-8.133-12.008.762.762,0,0,1-.36-.971.633.633,0,0,1,.867-.4A14.734,14.734,0,0,1,32,113.065C32,121.294,24.827,128,16,128Zm0,0" transform="translate(0 -96.024)"/>
    <path id="Path_5" data-name="Path 5" d="M45,291.938a.328.328,0,0,1-.2-.067,4.939,4.939,0,0,1-2.133-3.913.333.333,0,1,1,.667,0,4.192,4.192,0,0,0,1.867,3.373.331.331,0,0,1,.067.467A.326.326,0,0,1,45,291.938Zm0,0" transform="translate(-41.335 -266.329)"/>
    <path id="Path_6" data-name="Path 6" d="M138.993,69.019a2.976,2.976,0,0,1-.42-.033,11.571,11.571,0,0,1-4.2-1.64c-5.3-.067-6.2-.327-6.363-.593-.1-.153.16-.313.6-.373.6-.087,2.021-.293,3-.467a3.4,3.4,0,0,1-1.621-1.867c-.02-.113.12-.22.38-.287a2.933,2.933,0,0,1,.92-.06c1.321.133,5.7.6,6.6,1.193.26.167.06.367-.44.447a2.183,2.183,0,0,1-1.341-.147,21.63,21.63,0,0,0-3.882-.687,3.621,3.621,0,0,0,1.581,1.32c.3.147.22.353-.22.46-.4.1-1.061.22-1.741.333.761.027,1.8.053,3.161.067a1.84,1.84,0,0,1,.88.187,10.452,10.452,0,0,0,3.061,1.413,3.113,3.113,0,0,0,2.061-1.327.717.717,0,0,1,.46-.22,2.869,2.869,0,0,1,.8-.033,36.378,36.378,0,0,0,4.2.207c-.68-.173-1.261-.36-1.7-.5-.18-.06-.32-.107-.44-.14-.3-.087-.42-.22-.3-.347a1.219,1.219,0,0,1,.8-.233,16.829,16.829,0,0,0,4.582-.753c-4.862-.2-7.2.607-7.3.647a2.7,2.7,0,0,1-1.421.02c-.4-.127-.44-.333-.06-.467.14-.053,3.581-1.273,10.564-.767a1.555,1.555,0,0,1,.661.167c.14.087.16.187.06.28-.94.807-3.122,1.2-4.882,1.393a15.826,15.826,0,0,0,2.3.507c.38.033.64.147.661.28s-.18.253-.52.313a27.876,27.876,0,0,1-6.743.12,5.588,5.588,0,0,1-3.181,1.533A3.021,3.021,0,0,1,138.993,69.019Zm0,0" transform="translate(-123.988 -61.698)"/>
    <path id="Path_7" data-name="Path 7" d="M215,4.654a.33.33,0,0,1-.333-.333V3.974a3.445,3.445,0,0,1,1.227-2.68.372.372,0,0,0-.527-.527l-.333.333A4.319,4.319,0,0,0,214,3.974v.347a.333.333,0,1,1-.667,0V3.974A4.985,4.985,0,0,1,214.559.627l.333-.333a1.067,1.067,0,0,1,1.473,0,1.042,1.042,0,0,1,0,1.473,2.8,2.8,0,0,0-1.027,2.207v.347A.34.34,0,0,1,215,4.654Zm0,0" transform="translate(-198.241 0)"/>
  </g>
</svg>
